<?xml version="1.0" encoding="UTF-8" standalone="no"?>
<!-- Created with Inkscape (http://www.inkscape.org/) -->

<svg
   width="119.24196mm"
   height="26.671728mm"
   viewBox="0 0 119.24196 26.671728"
   version="1.1"
   id="svg5"
   inkscape:version="1.1 (c68e22c387, 2021-05-23)"
   sodipodi:docname="Netychords.svg"
   xmlns:inkscape="http://www.inkscape.org/namespaces/inkscape"
   xmlns:sodipodi="http://sodipodi.sourceforge.net/DTD/sodipodi-0.dtd"
   xmlns="http://www.w3.org/2000/svg"
   xmlns:svg="http://www.w3.org/2000/svg">
  <sodipodi:namedview
     id="namedview7"
     pagecolor="#ffffff"
     bordercolor="#666666"
     borderopacity="1.0"
     inkscape:pageshadow="2"
     inkscape:pageopacity="0.0"
     inkscape:pagecheckerboard="0"
     inkscape:document-units="mm"
     showgrid="false"
     inkscape:zoom="1.3879489"
     inkscape:cx="242.44408"
     inkscape:cy="171.11581"
     inkscape:window-width="1920"
     inkscape:window-height="1051"
     inkscape:window-x="-9"
     inkscape:window-y="-9"
     inkscape:window-maximized="1"
     inkscape:current-layer="layer1"
     fit-margin-top="0"
     fit-margin-left="0"
     fit-margin-right="0"
     fit-margin-bottom="0" />
  <defs
     id="defs2" />
  <g
     inkscape:label="Layer 1"
     inkscape:groupmode="layer"
     id="layer1"
     transform="translate(-53.556262,-87.921963)">
    <g
       aria-label="Netychords"
       id="text2630"
       style="font-size:25.4px;line-height:1.25;font-family:Legibility;-inkscape-font-specification:Legibility;mix-blend-mode:difference;stroke:#ffffff;stroke-width:2;paint-order:stroke fill markers">
      <path
         d="m 68.108893,89.074363 q 1.5494,-0.381 1.5494,1.4224 0.0254,1.8542 0.8128,6.1722 0.8128,4.292597 2.159,7.950197 0,-1.2192 0.2794,-3.6068 0.2794,-2.412997 1.016,-5.435597 0.762,-3.0226 1.7526,-4.4958 1.4224,-2.1336 3.556,-2.159 1.2446,0 1.8034,0.6096 0.6096,0.635 -0.0254,1.2954 -1.8542,2.0574 -3.6576,7.5438 -1.778,5.486397 -2.2606,10.185397 0.0254,1.0922 -0.1778,1.3208 -0.0508,0.2032 -0.3302,0.1778 -0.2286,0.0254 -0.4826,-0.1778 -0.4826,-0.254 -1.27,-0.9652 -1.6002,-1.5748 -3.2766,-4.1402 -1.2446,-2.032 -2.413,-5.359397 -0.635,2.260597 -0.9652,3.276597 -0.0762,0.2032 -0.3302,0.8382 -0.2286,0.635 -0.3302,0.9144 -0.1016,0.254 -0.3302,0.762 -0.2032,0.508 -0.4572,0.9652 -0.2286,0.4318 -0.533399,0.889 -0.9398,1.4732 -2.6416,2.2098 -1.6764,0.7366 -3.175,0.3302 -0.9652,-0.3048 -1.8542,-0.889 -0.8636,-0.5842 -1.27,-0.9906 -0.4064,-0.381 -0.4826,-0.5334 0,0 -0.0508,-0.1016 -0.4318,-0.7366 0.254,-0.6858 0.3048,0 0.8636,0.1778 1.0414,0.381 2.032,0.0508 1.016,-0.3556 1.9304,-1.4732 0.9398,-1.143 1.651,-2.2352 0.7366,-1.0922 1.5494,-2.971797 0.8382,-1.905 1.2446,-2.9464 0.431799,-1.0668 1.117599,-2.8702 0.4572,-1.2446 0.6604,-1.7526 -0.7112,0.4318 -1.3716,0.9398 -0.965199,0.8636 -1.473199,1.4986 -0.508,0.635 -0.6604,0.9906 -0.1524,0.3556 -0.3048,1.0414 -0.0508,0.1524 -0.0762,0.254 -0.127,0.381 -0.4318,0.0508 -0.254,-0.2794 -0.3556,-0.8636 -0.254,-1.397 1.1938,-3.4544 0.9398,-1.27 2.387599,-2.2352 1.4478,-0.9906 3.175,-1.524 z"
         style="font-family:'Brigest Script';-inkscape-font-specification:'Brigest Script'"
         id="path823" />
      <path
         d="m 85.076045,97.278563 q -0.5842,0 -1.4986,1.0668 -0.889,1.0414 -1.6764,2.539997 0.7874,0.2794 1.5494,-0.127 0.4826,-0.254 0.9906,-1.092197 0.508,-0.8382 0.7112,-1.5748 0.2286,-0.762 0.0254,-0.8128 -0.0508,0 -0.1016,0 z m -0.9398,-1.651 q 2.0574,0 2.4638,1.7018 0.3556,1.5494 -0.7366,3.251197 -1.1684,1.8288 -2.8956,2.0066 -0.8636,0.1016 -1.7272,-0.3048 -0.7112,1.7272 -0.635,2.7686 0.1016,0.5842 0.4826,0.762 0.4064,0.1524 0.889,0.0254 0.508,-0.1524 1.0922,-0.508 1.2954,-0.889 2.2098,-1.9304 0.9398,-1.0668 1.9304,-2.5908 0,0 0.0254,-0.0508 0.0508,-0.0762 0.0508,-0.0762 0.0254,-0.0254 0.0508,-0.0508 0.0508,-0.0508 0.0762,-0.0762 0.0508,-0.0254 0.0762,-0.0254 0.0508,-0.0254 0.127,-0.0254 h 0.9144 q 0.1778,0 0,0.2794 -0.0254,0.0254 -0.0508,0.1016 -0.7112,1.1176 -1.2446,1.905 -0.5334,0.762 -1.397,1.7272 -0.8636,0.9398 -1.7018,1.524 -0.8128,0.5842 -1.9812,1.016 -1.143,0.4318 -2.413,0.4826 -0.8636,-0.0254 -1.4986,-0.3302 -0.6096,-0.3302 -0.9144,-1.0668 -0.3302,-0.762 -0.254,-1.778 0.0762,-1.0414 0.3556,-2.1336 0.2794,-1.0922 0.8636,-2.1844 0.6096,-1.092197 1.3208,-1.981197 0.7366,-0.889 1.6764,-1.524 0.9652,-0.635 1.9812,-0.8128 0.4064,-0.1016 0.8636,-0.1016 z"
         style="font-family:'Brigest Script';-inkscape-font-specification:'Brigest Script'"
         id="path825" />
      <path
         d="m 93.483433,89.607763 q 0.5842,0 1.0414,0.5842 0.4826,0.5588 0.5842,1.3716 0.127,0.7874 -0.1524,1.651 0.8382,-0.0762 1.5748,0.1524 0.7366,0.2032 1.9304,0.9398 0.127,0.0762 0.0508,0.3048 -0.0762,0.2032 -0.2794,0.1778 -2.6416,-0.381 -4.0386,-0.1524 -1.0668,1.9558 -2.5654,4.9276 -1.4732,2.971797 -2.2098,4.673597 -0.127,0.381 -0.254,0.7874 -0.1778,0.5842 0.3302,0.4572 0.5588,-0.1524 1.651,-1.0414 1.651,-1.4732 3.1242,-3.6576 0.0254,-0.0508 0.0508,-0.1016 0.0508,-0.0762 0.0762,-0.1016 0.0254,-0.0508 0.0762,-0.0762 0.0762,-0.0254 0.1524,-0.0254 h 0.9144 q 0.2286,0 0,0.3556 -2.1844,3.4798 -5.0038,5.588 -0.254,0.1778 -0.5334,0.3556 -4.2926,2.2606 -4.1402,-1.1176 0.1524,-3.175 3.9624,-10.515597 -0.508,0.0254 -1.0414,0.0254 -0.508,-0.0254 -1.016,-0.381 -0.4826,-0.381 -0.7874,-0.8636 -0.1524,-0.3048 -0.1524,-0.5334 0,-0.4064 0.4318,-0.4064 0.1524,0 0.381,0.0762 1.1938,0.3556 3.048,0.4572 1.9304,-3.5306 2.1336,-3.683 0.3302,-0.2286 0.6604,-0.2286 z"
         style="font-family:'Brigest Script';-inkscape-font-specification:'Brigest Script'"
         id="path827" />
      <path
         d="m 96.658396,108.45456 q -0.635,0.3302 -1.397,1.0668 -0.762,0.762 -1.2192,1.4986 -0.6858,1.2954 -0.254,1.4224 0.2794,0.1016 0.9144,-0.6604 0.6858,-0.9398 1.9558,-3.3274 z M 102.6274,95.754563 q 0.6096,-0.3556 1.0922,-0.1524 0.4826,0.2032 0.8382,0.8128 0.4064,0.6604 0.4572,1.524 0.0508,0.8382 -0.381,1.6764 -0.5842,0.965197 -1.5748,2.971797 -0.9652,1.9812 -1.1684,2.4892 l -0.1778,0.3556 q 0.0508,-0.0254 0.1524,-0.0762 0.508,-0.254 0.7874,-0.4572 0.3048,-0.2032 0.8382,-0.6604 0.5588,-0.4826 1.2192,-1.3208 0.6858,-0.8382 1.5748,-2.1082 0,0 0.0254,-0.0508 0.0508,-0.0762 0.0508,-0.0762 0.0254,-0.0254 0.0508,-0.0508 0.0508,-0.0508 0.0762,-0.0762 0.0508,-0.0254 0.0762,-0.0254 0.0508,-0.0254 0.127,-0.0254 h 0.9144 q 0.1778,0 0,0.2794 -0.0254,0.0254 -0.0508,0.1016 -0.5842,0.9144 -1.1176,1.6764 -1.3208,1.905 -2.5146,2.921 -1.1938,1.016 -2.8194,1.7018 -0.0762,0.0254 -0.1524,0.0508 -0.5842,1.3716 -1.498604,2.6924 -0.9144,1.3462 -1.7272,2.032 -1.524,1.3462 -3.1242,1.6002 -1.6256,0.2286 -1.7272,-1.0922 -0.0254,-0.3048 0.0508,-0.635 0.2286,-1.3208 1.4224,-2.667 1.2192,-1.3462 2.7178,-2.3368 -4.7244,2.2352 -4.572,-0.9652 0.127,-2.54 2.9464,-7.391397 1.0414,-1.778 1.3208,-2.0066 0.7112,-0.508 1.4224,0.0762 0.7112,0.5842 0.8636,1.6256 0.1524,1.016 -0.3556,2.082797 -1.016,1.7272 -1.8796,3.4798 -0.8636,1.7526 -0.6096,1.905 0.4318,0.2794 2.286,-1.27 1.1684,-2.8956 2.387604,-5.486397 1.2192,-2.6162 1.7526,-3.1242 z"
         style="font-family:'Brigest Script';-inkscape-font-specification:'Brigest Script'"
         id="path829" />
      <path
         d="m 112.40637,95.627563 q 0.9398,0 1.5494,0.381 0.6096,0.381 0.8128,0.9906 0.2032,0.6096 0.1524,1.3462 -0.0508,0.7366 -0.381,1.4732 -0.4826,0.965197 -1.2954,1.142997 -0.6858,0.127 -0.7366,-0.4826 -0.0254,-0.3556 0.254,-0.914397 0.3048,-0.508 0.508,-1.0414 0.2032,-0.5334 0.254,-0.8382 0.0508,-0.3302 -0.0762,-0.4064 -0.0508,0 -0.1016,0 -0.7874,0 -1.9558,1.6256 -1.143,1.625597 -1.8796,3.378197 -0.7112,1.7272 -0.635,2.7686 0.1016,0.5842 0.4826,0.762 0.4064,0.1524 0.889,0.0254 0.508,-0.1524 1.0922,-0.508 1.2954,-0.889 2.2098,-1.9304 0.9398,-1.0668 1.9304,-2.5908 0,0 0.0254,-0.0508 0.0508,-0.0762 0.0508,-0.0762 0.0254,-0.0254 0.0508,-0.0508 0.0508,-0.0508 0.0762,-0.0762 0.0508,-0.0254 0.0762,-0.0254 0.0508,-0.0254 0.127,-0.0254 h 0.9144 q 0.1778,0 0,0.2794 -0.0254,0.0254 -0.0508,0.1016 -0.7112,1.1176 -1.2446,1.905 -0.5334,0.762 -1.397,1.7272 -0.8636,0.9398 -1.7018,1.524 -0.8128,0.5842 -1.9812,1.016 -1.143,0.4318 -2.413,0.4826 -1.8796,-0.0254 -2.413,-1.397 -0.3302,-0.762 -0.254,-1.778 0.0762,-1.0414 0.3556,-2.1336 0.2794,-1.0922 0.8636,-2.1844 0.6096,-1.092197 1.3208,-1.981197 0.7366,-0.889 1.6764,-1.524 0.9652,-0.635 1.9812,-0.8128 0.4064,-0.1016 0.8636,-0.1016 z"
         style="font-family:'Brigest Script';-inkscape-font-specification:'Brigest Script'"
         id="path831" />
      <path
         d="m 121.75356,89.582363 q 0.635,-0.0254 1.1176,0.635 0.508,0.6604 0.5842,1.5748 0.0762,0.889 -0.381,1.778 -0.508,0.889 -1.9304,3.683 -1.397,2.793997 -2.54,5.283197 -1.143,2.4638 -1.016,2.4384 4.1148,-6.680197 6.5278,-8.889997 0.9652,-0.9398 1.8796,-0.0508 0.8382,0.8636 0.762,2.286 -0.0508,0.7112 -0.4064,1.2954 -0.7366,1.269997 -1.6002,2.946397 -0.8636,1.6764 -1.143,2.5146 -0.1524,0.5842 0.3556,0.4318 0.5588,-0.1524 1.651,-1.016 1.397,-1.27 2.9972,-3.683 0.0254,0 0.0508,-0.0508 0.0254,-0.0762 0.0508,-0.0762 0.0254,-0.0254 0.0508,-0.0508 0.0508,-0.0508 0.0762,-0.0762 0.0254,-0.0254 0.0762,-0.0254 0.0508,-0.0254 0.1016,-0.0254 h 0.9398 q 0.1524,0 0,0.2794 -0.0254,0.0254 -0.0762,0.1016 -3.429,5.5372 -7.1374,6.604 -1.6764,0.508 -2.3114,-0.1016 -0.635,-0.6096 -0.4572,-2.032 0.2794,-1.6002 0.9144,-3.0226 0.2286,-0.5588 0.508,-1.1684 -1.9558,2.6416 -4.064,5.842 -0.1778,0.254 -0.6096,0.4318 -2.7686,0.9144 -2.5908,-1.9304 0.2286,-3.5814 4.5466,-11.582397 2.0066,-3.683 2.4638,-4.1402 0.3048,-0.2032 0.6096,-0.2032 z"
         style="font-family:'Brigest Script';-inkscape-font-specification:'Brigest Script'"
         id="path833" />
      <path
         d="m 132.24375,101.13936 q -1.1938,2.3876 -1.0922,3.937 0.2032,1.397 1.905,0.2286 0.5842,-0.4064 1.2446,-1.0668 -2.5654,-0.5334 -2.0574,-3.0988 z m 3.8862,-1.752597 q -0.1016,-0.4318 -0.4572,-0.4826 -0.3556,-0.0762 -0.6604,0.1524 -0.4572,0.2794 -0.8636,0.9398 -0.381,0.660397 -0.5334,1.346197 -0.127,0.6858 0.2286,1.2446 0.381,0.5334 1.2954,0.5588 0.5588,-0.8382 0.8128,-1.8542 0.2794,-1.0414 0.1778,-1.904997 z m -2.3876,-3.6322 q 0.5588,-0.1778 0.9652,0.2794 0.4318,0.4318 0.254,1.143 1.9812,-0.5588 2.286,1.4478 0.254,1.701797 -0.6604,3.835397 -0.1524,0.3048 -0.3048,0.5842 1.0414,-0.1016 2.5654,-2.3876 0.1016,-0.1016 0.2286,-0.1016 0.0508,0 0.2032,0 0.1524,0 0.3048,0 0.1778,-0.0254 0.5334,0 0.127,0 0.0254,0.1524 -0.0254,0.0254 -0.0508,0.0762 -1.1938,1.7526 -2.2098,2.5908 -1.016,0.8128 -2.1844,0.8636 -1.4986,1.8288 -2.7178,2.5908 -1.2192,0.7366 -2.54,0.7366 -1.9812,-0.0254 -2.5146,-1.397 -0.3048,-0.762 -0.2286,-1.778 0.0762,-1.0414 0.3556,-2.1336 0.2794,-1.0922 0.8636,-2.159 0.5842,-1.092197 1.27,-1.981197 0.7112,-0.9144 1.651,-1.5494 0.9398,-0.635 1.905,-0.8128 z"
         style="font-family:'Brigest Script';-inkscape-font-specification:'Brigest Script'"
         id="path835" />
      <path
         d="m 142.6577,92.782763 q 0.5842,-0.0254 1.0922,0.2794 0.508,0.2794 0.6858,0.635 0.1778,0.3556 0,0.5334 -0.6858,0.7112 -1.016,1.2954 4.2164,0.0762 4.6482,1.2954 0.1016,0.3302 -0.0762,0.4572 -1.0414,0.9652 -2.54,4.190997 -1.4986,3.2258 -1.2192,4.1656 0.3556,0.2286 1.778,-1.3208 1.4224,-1.5748 2.6416,-3.5052 0.1778,-0.3048 0.4064,-0.3048 h 0.9398 q 0.127,0 0.127,0.0508 0,0.0508 -0.1778,0.3302 -0.1524,0.2286 -0.5842,0.8636 -0.4064,0.6096 -0.6096,0.889 -0.1778,0.2794 -0.6096,0.889 -0.4064,0.5842 -0.6604,0.889 -0.254,0.2794 -0.7112,0.7874 -0.4318,0.508 -0.762,0.7874 -0.3302,0.254 -0.8128,0.635 -0.4572,0.3556 -0.889,0.5588 -0.4064,0.1778 -0.9144,0.3302 -0.508,0.1524 -1.016,0.2032 -2.8448,0.0762 -1.1684,-4.572 0.508,-1.4986 1.397,-3.1242 0.889,-1.650997 1.7018,-2.819397 -0.2286,-0.0762 -0.889,-0.1524 -0.6604,-0.0762 -0.8636,-0.0508 -0.2286,0.3302 -0.7874,1.1938 -0.5334,0.8382 -0.9398,1.4478 -0.4064,0.609597 -0.762,1.168397 -0.0508,0.127 -0.3556,0.127 h -0.7874 q -0.254,0 -0.1016,-0.2032 0.2286,-0.381 1.1684,-1.803397 0.9398,-1.4224 1.397,-2.2098 -1.016,-0.4064 -1.2192,-1.3716 -0.2032,-0.9652 0.5842,-1.7018 0.889,-0.8636 1.905,-0.8636 z"
         style="font-family:'Brigest Script';-inkscape-font-specification:'Brigest Script'"
         id="path837" />
      <path
         d="m 156.78009,97.811963 q -0.1778,-0.7112 -0.9398,-0.5334 -0.9144,0.2032 -2.032,1.6002 -1.1176,1.396997 -1.8796,3.200397 -0.7366,1.778 -0.6604,2.9718 0.0508,0.7366 0.7112,0.4318 0.889,-0.4064 1.8288,-2.1082 0.4318,-0.8128 1.4224,-2.4384 0.254,-0.5588 0.762,-1.574797 0.5334,-1.016 0.7874,-1.5494 z m 5.0292,-8.2296 q 0.6096,-0.0254 1.0922,0.635 0.508,0.6604 0.5842,1.5748 0.0762,0.889 -0.381,1.778 -0.889,1.5494 -3.2004,6.1468 -2.3114,4.597397 -2.5908,5.664197 0.127,0.2794 0.6604,0.0254 0.5588,-0.2794 1.3462,-0.9144 1.397,-1.27 3.0226,-3.683 0,0 0.0254,-0.0508 0.0508,-0.0762 0.0508,-0.0762 0.0254,-0.0254 0.0508,-0.0508 0.0508,-0.0508 0.0762,-0.0762 0.0508,-0.0254 0.1016,-0.0254 0.0508,-0.0254 0.1016,-0.0254 h 0.9144 q 0.1778,0 0,0.2794 0,0.0254 -0.0508,0.1016 -2.2606,3.6576 -4.4196,5.2324 -0.381,0.3302 -0.8382,0.635 -1.4478,0.762 -2.3876,0.8636 -1.4478,0.3048 -1.9812,-0.381 -0.508,-0.7112 -0.2286,-2.1082 -0.9144,1.143 -2.2098,2.032 -0.9906,0.635 -2.0828,0.2794 -1.0668,-0.381 -1.4732,-1.2954 -0.3302,-0.762 -0.254,-1.778 0.0762,-1.0414 0.3556,-2.1336 0.2794,-1.0922 0.8636,-2.1844 0.6096,-1.092197 1.3208,-1.981197 0.7366,-0.889 1.6764,-1.524 0.9652,-0.635 1.9812,-0.8128 1.0414,-0.2286 1.9812,0.0508 0.9398,0.254 1.3716,0.9652 0.8128,-1.6764 1.7018,-3.3274 0.9144,-1.651 1.4732,-2.5908 0.5842,-0.9398 0.7112,-1.0414 0.3048,-0.2032 0.635,-0.2032 z"
         style="font-family:'Brigest Script';-inkscape-font-specification:'Brigest Script'"
         id="path839" />
      <path
         d="m 163.66344,105.22876 q -0.127,0.0508 -0.4826,0.2032 -0.3302,0.127 -0.5334,0.2286 -0.1778,0.0762 -0.4064,0.2032 -0.254,0.1016 -0.3302,0.2032 -0.1016,0.1016 -0.0508,0.1778 0.254,0.3556 0.9906,0.1016 0.2794,-0.127 0.5588,-0.508 0.3048,-0.4064 0.254,-0.6096 z m 4.064,-11.429997 q 1.016,0.0508 1.778,0.7112 0.7874,0.6604 0.8382,1.3208 0.0762,0.6604 -0.381,1.016 -0.2032,0.0762 -1.7272,0.254 -0.5334,0.0762 -0.889,0.3556 -0.3556,0.254 -0.508,0.635 -0.127,0.3556 -0.1778,0.6858 -0.0254,0.3302 0,0.635 0.0762,1.142997 0.6604,3.428997 1.0922,-0.4572 1.7526,-0.9144 0.6858,-0.4572 1.397,-1.143 0.0254,-0.0254 0.1016,-0.1016 0.0762,-0.1016 0.127,-0.127 0.0762,-0.0508 0.1778,-0.0762 l 0.8128,0.0254 q 0.2032,0 0.0254,0.2794 -0.5588,0.7112 -1.1684,1.27 -0.6096,0.5588 -1.27,0.9398 -0.635,0.3556 -0.9906,0.5334 -0.3302,0.1524 -0.889,0.381 0.127,1.7526 -0.4318,2.7178 -0.635,0.9144 -1.3462,1.2954 -0.6858,0.4064 -1.651,0.6096 -0.8636,0.2032 -1.8288,-0.1016 -0.9652,-0.3048 -1.5494,-0.9144 -0.6096,-0.5842 -0.5334,-1.1684 0.2286,-1.4224 3.429,-2.2606 -0.8128,-1.778 -1.0668,-3.4544 -0.254,-1.701797 0.2032,-3.149597 0.6604,-1.6002 2.032,-2.667 1.3716,-1.0922 3.0734,-1.016 z"
         style="font-family:'Brigest Script';-inkscape-font-specification:'Brigest Script'"
         id="path841" />
    </g>
  </g>
</svg>
